<svg width="109" height="42" viewBox="0 0 109 42" fill="none" xmlns="http://www.w3.org/2000/svg">
<path fill-rule="evenodd" clip-rule="evenodd" d="M0.53189 38.3474L1.05411 38.1633V35.8478L1.586 35.528V41.9613H0V40.3917H0.53189V38.3474ZM3.1043 37.3786L3.62652 37.1654V34.191L4.15841 33.8132V41.9903H2.57241V40.2367L3.1043 40.1882V37.3786ZM5.67671 36.2547L6.19893 36.0028V32.2048L6.76951 31.7495V41.9903H5.14482V39.9654L5.67671 39.8879V36.2547ZM8.24913 34.9564L8.77135 34.6657V29.8215L9.30324 29.2983V41.9903H7.73658V39.5585L8.26847 39.4616L8.24913 34.9564ZM10.8215 33.4353L11.3438 33.0962V27.128L11.8756 26.5176V41.9903H10.2896V39.0062L10.8215 38.8706V33.4353ZM13.394 31.672L13.9258 31.2747V23.9792L14.4481 23.2623V41.9903H12.8717V38.2893L13.394 38.1149V31.672ZM15.9664 29.5986L16.4983 29.1336V20.2201L17.0205 19.3772V41.9903H15.4732V37.3592L15.9954 37.1363L15.9664 29.5986ZM18.5388 27.128L19.0707 26.5564V15.6955C19.2447 15.337 19.4285 14.9882 19.5929 14.6298V41.9903H18.0166V36.1772L18.5388 35.9059V27.128ZM21.1112 24.018L21.6431 23.2623V9.85329C21.8268 9.36886 22.0009 8.88443 22.1653 8.39031V41.9903H20.589V34.7045L21.1112 34.3557V24.018ZM24.7377 42H23.2097V32.8152L23.732 32.3696V19.7066C23.9254 19.3093 24.0994 18.9218 24.2638 18.5246V0H24.7861L24.7377 42Z" fill="white"/>
<path d="M52.1957 27.2595V15.4528H58.781V17.0847H54.1104V20.0275H58.781V21.704H54.1104V25.476H58.781V27.2595H52.1957ZM63.4695 27.2595V15.4528H66.0464C68.9364 15.4528 71.6565 15.5509 72.9538 18.5561C73.3097 19.4428 73.4802 20.3926 73.4549 21.3473C73.4707 22.2979 73.2911 23.2417 72.927 24.1206C71.728 26.9296 69.3122 27.2595 66.5653 27.2595H63.4695ZM65.4022 25.476H67.0127C68.8917 25.476 70.4038 25.2353 71.1643 23.2913C71.4009 22.6615 71.5163 21.9929 71.5044 21.3205C71.5176 20.648 71.4022 19.9792 71.1643 19.3498C70.377 17.3255 68.7396 17.1561 66.789 17.1561H65.4022V25.476ZM81.0603 27.6608L75.7902 15.4439H77.7855L80.4697 21.6861C80.744 22.2906 80.9568 22.9209 81.105 23.5677C81.2587 22.9225 81.4713 22.2927 81.7403 21.6861L84.4245 15.4439H86.4019L81.0603 27.6608ZM89.623 27.2595V15.4528H96.2084V17.0847H91.5378V20.0275H96.2084V21.704H91.5378V25.476H96.2084V27.2595H89.623ZM99.5458 27.2595L103.366 21.1065L99.9842 15.4974H101.997L103.697 18.3421C103.93 18.7166 104.127 19.1179 104.324 19.5013C104.53 19.1179 104.744 18.7345 104.977 18.3599L106.766 15.4618H108.735L105.29 21.0173L108.994 27.2595H106.883L104.905 23.9244C104.691 23.5409 104.485 23.1307 104.279 22.7384C104.082 23.1307 103.867 23.5231 103.635 23.8976L101.568 27.2595H99.5458ZM36.457 27.2595V14.998L43.9282 22.1766C44.3804 22.6286 44.8075 23.1049 45.2077 23.6034V15.4528H46.9972V27.6697L39.356 20.3574C38.9372 19.9534 38.5568 19.5116 38.2197 19.0376V27.2595H36.457Z" fill="white"/>
<path d="M107.006 34.2261V33.5573H108.992C109.015 33.9118 108.964 34.2671 108.84 34.6004C108.717 34.9337 108.525 35.2376 108.277 35.4924C108.058 35.6977 107.801 35.8572 107.52 35.9614C107.238 36.0656 106.939 36.1123 106.639 36.0987C106.336 36.1107 106.033 36.059 105.751 35.9468C105.469 35.8347 105.214 35.6647 105.002 35.4478C104.768 35.2138 104.584 34.9352 104.461 34.6288C104.338 34.3223 104.279 33.9943 104.286 33.6643C104.284 33.3196 104.348 32.9777 104.474 32.6566C104.593 32.3679 104.766 32.1046 104.984 31.8808C105.211 31.6564 105.482 31.4804 105.78 31.3636C106.145 31.2189 106.535 31.1528 106.927 31.1697C107.319 31.1867 107.703 31.2862 108.053 31.4617C108.37 31.632 108.638 31.8807 108.831 32.184L108.25 32.5942C108.097 32.3706 107.895 32.1845 107.659 32.0502C107.388 31.8942 107.077 31.8198 106.764 31.8362C106.529 31.8313 106.294 31.8729 106.075 31.9586C105.855 32.0443 105.655 32.1724 105.485 32.3356C105.321 32.5078 105.193 32.711 105.109 32.9331C105.019 33.1695 104.974 33.4204 104.975 33.6732C104.964 34.1559 105.144 34.6237 105.476 34.9751C105.632 35.1361 105.82 35.2622 106.028 35.3452C106.236 35.4282 106.46 35.4662 106.684 35.4567C106.883 35.4621 107.081 35.4269 107.265 35.3533C107.45 35.2796 107.617 35.1692 107.758 35.0286C107.984 34.8144 108.127 34.5267 108.16 34.2172L107.006 34.2261ZM96.4391 36.0096H95.7054V30.9355L99.2039 34.5739V31.2566H99.9376V36.3395L96.4391 32.7012V36.0096ZM90.3906 31.2209H91.1332V36.0096H90.3906V31.2209ZM86.3284 31.9075H85.2189V36.0096H84.4852V31.9075H83.3758V31.2209H86.3284V31.9075ZM77.8373 31.2209H78.571V35.3229H79.9847V36.0096H77.8373V31.2209ZM69.6861 31.2209H70.4287V34.1102C70.4073 34.3921 70.4597 34.6748 70.5808 34.9306C70.6697 35.074 70.7926 35.1935 70.9388 35.2783C71.1 35.3778 71.2859 35.4305 71.4756 35.4305C71.6653 35.4305 71.8512 35.3778 72.0124 35.2783C72.1565 35.1908 72.2789 35.0719 72.3703 34.9306C72.4854 34.6729 72.5375 34.3918 72.5225 34.1102V31.2566H73.2561V34.3331C73.2735 34.7911 73.1133 35.2381 72.8088 35.5815C72.6405 35.7651 72.434 35.9097 72.2037 36.0052C71.9733 36.1007 71.7248 36.1448 71.4756 36.1344C71.2255 36.1409 70.9769 36.095 70.7457 35.9998C70.5146 35.9045 70.306 35.7621 70.1335 35.5815C69.8289 35.2381 69.6687 34.7911 69.6861 34.3331V31.2209ZM65.2124 31.9432L64.6218 32.2821C64.5777 32.1667 64.5036 32.0652 64.4071 31.9878C64.26 31.8703 64.0766 31.8072 63.8881 31.8095C63.7975 31.8029 63.7064 31.8145 63.6204 31.8436C63.5343 31.8727 63.455 31.9187 63.3871 31.9789C63.3293 32.0303 63.2834 32.0936 63.2525 32.1645C63.2216 32.2353 63.2065 32.3119 63.2081 32.3891C63.2081 32.6299 63.3781 32.826 63.7271 32.9687L64.2102 33.1649C64.6113 33.2205 64.9737 33.4326 65.2179 33.7545C65.462 34.0764 65.5679 34.4818 65.5121 34.8815C65.4563 35.2812 65.2435 35.6424 64.9205 35.8858C64.5975 36.1291 64.1907 36.2346 63.7897 36.179C63.5784 36.1881 63.3678 36.1504 63.1728 36.0687C62.9779 35.987 62.8035 35.8632 62.6623 35.7064C62.4258 35.4477 62.2812 35.1187 62.2507 34.77L62.9844 34.6095C62.9799 34.8307 63.0491 35.0471 63.1813 35.2248C63.2581 35.3178 63.3554 35.3919 63.4655 35.4414C63.5757 35.4908 63.6958 35.5144 63.8165 35.5102C63.9208 35.5135 64.0247 35.4955 64.1217 35.4571C64.2186 35.4188 64.3066 35.361 64.3802 35.2873C64.4572 35.212 64.5176 35.1216 64.5576 35.0218C64.5977 34.922 64.6165 34.815 64.6129 34.7076C64.6183 34.6138 64.6035 34.5199 64.5695 34.4323C64.5356 34.3446 64.4833 34.2652 64.416 34.1993C64.2699 34.0652 64.1 33.9594 63.915 33.8872L63.4497 33.691C63.1786 33.619 62.9377 33.4624 62.7623 33.2442C62.5868 33.026 62.4859 32.7576 62.4744 32.4783C62.4734 32.312 62.5061 32.1473 62.5707 31.9941C62.6353 31.8408 62.7304 31.7022 62.8502 31.5865C62.9883 31.4598 63.1505 31.362 63.3273 31.2992C63.5041 31.2364 63.6918 31.2098 63.8792 31.2209C64.2299 31.2062 64.5738 31.3205 64.8455 31.5419C64.9947 31.6629 65.1192 31.8112 65.2124 31.9789V31.9432ZM54.4754 36.0096H53.7685V30.9355L57.267 34.5739V31.2566H58.0007V36.3395L54.4664 32.7012L54.4754 36.0096ZM45.6174 34.9216C45.7825 35.0891 45.9807 35.2207 46.1993 35.3081C46.418 35.3956 46.6524 35.4371 46.8879 35.4299C47.1247 35.4372 47.3606 35.3959 47.5807 35.3084C47.8008 35.221 48.0005 35.0893 48.1674 34.9216C48.4851 34.5618 48.6603 34.099 48.6603 33.6197C48.6603 33.1404 48.4851 32.6776 48.1674 32.3177C48.0005 32.1501 47.8008 32.0184 47.5807 31.931C47.3606 31.8435 47.1247 31.8022 46.8879 31.8095C46.6524 31.8023 46.418 31.8438 46.1993 31.9313C45.9807 32.0187 45.7825 32.1503 45.6174 32.3177C45.2997 32.6776 45.1244 33.1404 45.1244 33.6197C45.1244 34.099 45.2997 34.5618 45.6174 34.9216ZM45.0984 31.8451C45.5122 31.4145 46.0634 31.1408 46.6576 31.0709C47.2517 31.0011 47.8517 31.1394 48.3547 31.4623C48.8577 31.7851 49.2323 32.2723 49.4142 32.8403C49.5962 33.4083 49.5742 34.0217 49.352 34.5753C49.1299 35.1289 48.7213 35.5882 48.1965 35.8744C47.6717 36.1606 47.0633 36.256 46.4757 36.144C45.8881 36.0321 45.3578 35.7199 44.9759 35.2609C44.594 34.8019 44.3843 34.2249 44.3826 33.6286C44.377 33.3049 44.4366 32.9834 44.558 32.6832C44.6795 32.383 44.8602 32.1101 45.0895 31.8808L45.0984 31.8451ZM40.2846 31.4795V32.3713C39.934 32.0327 39.4664 31.8412 38.9783 31.8362C38.7418 31.8274 38.5062 31.869 38.2871 31.9582C38.068 32.0474 37.8705 32.1821 37.7078 32.3534C37.379 32.7094 37.2053 33.1808 37.2246 33.6643C37.2166 33.8996 37.257 34.1341 37.3431 34.3534C37.4293 34.5727 37.5595 34.7721 37.7257 34.9395C37.8874 35.1096 38.0834 35.2437 38.3008 35.3328C38.5183 35.422 38.7522 35.4642 38.9873 35.4567C39.476 35.4502 39.9423 35.2515 40.2846 34.9038V35.7955C39.8849 36.0345 39.4265 36.158 38.9604 36.1522C38.6347 36.1558 38.3115 36.0946 38.0098 35.9723C37.7081 35.85 37.4338 35.669 37.2031 35.4399C36.9724 35.2107 36.7897 34.9381 36.6659 34.6378C36.5421 34.3375 36.4796 34.0157 36.482 33.691C36.4697 33.3416 36.5329 32.9935 36.6671 32.6705C36.8014 32.3474 37.0037 32.0568 37.2604 31.8184C37.4943 31.6056 37.768 31.441 38.0659 31.3339C38.3638 31.2268 38.6799 31.1793 38.9962 31.1942C39.445 31.1748 39.8896 31.2864 40.2757 31.5152L40.2846 31.4795Z" fill="white"/>
</svg>
